<svg width="1707" height="1147" viewBox="0 0 1707 1147" fill="none" xmlns="http://www.w3.org/2000/svg">
<path d="M886.065 578.625C851.2 578.625 817.92 573.861 786.225 564.334C755.058 554.806 730.495 543.162 712.534 529.4L716.135 522.545C731.115 494.026 767.968 484.779 798.256 495.751C802.322 497.224 806.5 498.648 810.789 500.023C837.201 508.492 864.142 512.727 891.611 512.727C927.004 512.727 952.36 507.698 967.679 497.641C983.527 487.585 991.451 473.558 991.451 455.562C991.451 442.329 986.696 432.007 977.188 424.597C967.679 417.187 955.001 411.629 939.154 407.924C923.835 404.219 906.666 401.043 887.649 398.396C868.632 395.221 849.615 391.516 830.598 387.281C811.581 382.517 794.149 376.166 778.301 368.226C762.454 359.757 749.776 348.377 740.267 334.086C730.759 319.265 726.005 299.681 726.005 275.333C726.005 249.926 733.136 227.695 747.399 208.64C761.662 189.585 781.735 175.03 807.619 164.973C834.032 154.387 865.199 149.094 901.12 149.094C928.589 149.094 956.322 152.534 984.319 159.415C1012.84 165.767 1036.09 175.03 1054.05 187.204L1041.9 209.776C1030.99 230.029 1005.09 235.951 983.566 227.839C976.519 225.184 969.375 223.018 962.133 221.344C941.531 216.58 920.929 214.198 900.327 214.198C867.048 214.198 842.22 219.756 825.844 230.871C809.468 241.457 801.28 255.219 801.28 272.157C801.28 286.448 806.035 297.564 815.543 305.503C825.58 312.914 838.258 318.736 853.577 322.97C869.425 327.205 886.857 330.91 905.874 334.086C924.891 336.732 943.908 340.438 962.925 345.201C981.942 349.436 999.11 355.523 1014.43 363.462C1030.28 371.402 1042.96 382.517 1052.46 396.809C1062.5 411.1 1067.52 430.155 1067.52 453.974C1067.52 479.38 1060.12 501.346 1045.33 519.872C1030.54 538.398 1009.68 552.954 982.735 563.54C955.794 573.597 923.57 578.625 886.065 578.625Z" fill="#FB1616"/>
<path d="M904.627 745.869C849.068 745.869 797.677 736.841 750.453 718.785C703.923 700.034 663.296 673.991 628.572 640.656C594.542 606.626 567.805 567.041 548.359 521.9C528.914 476.759 519.191 427.104 519.191 372.935C519.191 318.765 528.914 269.11 548.359 223.969C567.805 178.828 594.89 139.59 629.613 106.255C664.337 72.2257 704.964 46.1827 751.494 28.1263C798.719 9.37543 850.11 0 905.668 0C961.921 0 1013.66 9.72269 1060.88 29.1681C1108.8 47.9189 1149.43 76.0453 1182.77 113.547L1142.58 152.496C1127.42 167.192 1103.35 166.441 1086.91 153.188C1066.62 136.837 1044.75 123.97 1021.3 114.589C986.575 100.005 949.421 92.7128 909.835 92.7128C868.861 92.7128 830.665 99.6576 795.246 113.547C760.523 127.437 730.313 146.882 704.617 171.883C678.921 196.884 658.781 226.747 644.197 261.471C630.308 295.5 623.363 332.655 623.363 372.935C623.363 413.214 630.308 450.716 644.197 485.44C658.781 519.469 678.921 548.985 704.617 573.986C730.313 598.987 760.523 618.433 795.246 632.322C830.665 646.212 868.861 653.156 909.835 653.156C949.421 653.156 986.575 646.212 1021.3 632.322C1027.94 629.531 1034.46 626.46 1040.86 623.109C1086.7 599.073 1145.6 595.255 1182.77 631.28V631.28C1149.43 668.782 1108.8 697.256 1060.88 716.701C1013.66 736.147 961.574 745.869 904.627 745.869Z" fill="white"/>
<path d="M1268.4 241.39L1435.24 410.008L1268.4 578.626" stroke="white" stroke-width="77" stroke-linecap="square"/>
<path d="M1522.16 290.015L1643 410.855L1522.16 531.695" stroke="white" stroke-width="77" stroke-linecap="square"/>
<path d="M180.84 290.015L60.0001 410.855L180.84 531.695" stroke="white" stroke-width="77" stroke-linecap="square"/>
<path d="M434.604 241.39L267.761 410.008L434.604 578.626" stroke="white" stroke-width="77" stroke-linecap="square"/>
<path d="M383.7 1030.2C375.7 1030.2 368.3 1028.9 361.5 1026.3C354.8 1023.6 348.95 1019.85 343.95 1015.05C339.05 1010.15 335.2 1004.45 332.4 997.95C329.6 991.45 328.2 984.3 328.2 976.5C328.2 968.7 329.6 961.55 332.4 955.05C335.2 948.55 339.1 942.9 344.1 938.1C349.1 933.2 354.95 929.45 361.65 926.85C368.45 924.15 375.85 922.8 383.85 922.8C391.95 922.8 399.4 924.2 406.2 927C413.1 929.7 418.95 933.75 423.75 939.15L414 948.6C410 944.4 405.5 941.3 400.5 939.3C395.5 937.2 390.15 936.15 384.45 936.15C378.55 936.15 373.05 937.15 367.95 939.15C362.95 941.15 358.6 943.95 354.9 947.55C351.2 951.15 348.3 955.45 346.2 960.45C344.2 965.35 343.2 970.7 343.2 976.5C343.2 982.3 344.2 987.7 346.2 992.7C348.3 997.6 351.2 1001.85 354.9 1005.45C358.6 1009.05 362.95 1011.85 367.95 1013.85C373.05 1015.85 378.55 1016.85 384.45 1016.85C390.15 1016.85 395.5 1015.85 400.5 1013.85C405.5 1011.75 410 1008.55 414 1004.25L423.75 1013.7C418.95 1019.1 413.1 1023.2 406.2 1026C399.4 1028.8 391.9 1030.2 383.7 1030.2ZM473.729 1029.9C465.729 1029.9 458.629 1028.15 452.429 1024.65C446.229 1021.15 441.329 1016.35 437.729 1010.25C434.129 1004.05 432.329 997.05 432.329 989.25C432.329 981.35 434.129 974.35 437.729 968.25C441.329 962.15 446.229 957.4 452.429 954C458.629 950.5 465.729 948.75 473.729 948.75C481.629 948.75 488.679 950.5 494.879 954C501.179 957.4 506.079 962.15 509.579 968.25C513.179 974.25 514.979 981.25 514.979 989.25C514.979 997.15 513.179 1004.15 509.579 1010.25C506.079 1016.35 501.179 1021.15 494.879 1024.65C488.679 1028.15 481.629 1029.9 473.729 1029.9ZM473.729 1017.3C478.829 1017.3 483.379 1016.15 487.379 1013.85C491.479 1011.55 494.679 1008.3 496.979 1004.1C499.279 999.8 500.429 994.85 500.429 989.25C500.429 983.55 499.279 978.65 496.979 974.55C494.679 970.35 491.479 967.1 487.379 964.8C483.379 962.5 478.829 961.35 473.729 961.35C468.629 961.35 464.079 962.5 460.079 964.8C456.079 967.1 452.879 970.35 450.479 974.55C448.079 978.65 446.879 983.55 446.879 989.25C446.879 994.85 448.079 999.8 450.479 1004.1C452.879 1008.3 456.079 1011.55 460.079 1013.85C464.079 1016.15 468.629 1017.3 473.729 1017.3ZM567.744 1029.9C560.044 1029.9 553.144 1028.2 547.044 1024.8C541.044 1021.4 536.294 1016.65 532.794 1010.55C529.294 1004.45 527.544 997.35 527.544 989.25C527.544 981.15 529.294 974.1 532.794 968.1C536.294 962 541.044 957.25 547.044 953.85C553.144 950.45 560.044 948.75 567.744 948.75C574.444 948.75 580.494 950.25 585.894 953.25C591.294 956.25 595.594 960.75 598.794 966.75C602.094 972.75 603.744 980.25 603.744 989.25C603.744 998.25 602.144 1005.75 598.944 1011.75C595.844 1017.75 591.594 1022.3 586.194 1025.4C580.794 1028.4 574.644 1029.9 567.744 1029.9ZM568.944 1017.3C573.944 1017.3 578.444 1016.15 582.444 1013.85C586.544 1011.55 589.744 1008.3 592.044 1004.1C594.444 999.8 595.644 994.85 595.644 989.25C595.644 983.55 594.444 978.65 592.044 974.55C589.744 970.35 586.544 967.1 582.444 964.8C578.444 962.5 573.944 961.35 568.944 961.35C563.844 961.35 559.294 962.5 555.294 964.8C551.294 967.1 548.094 970.35 545.694 974.55C543.294 978.65 542.094 983.55 542.094 989.25C542.094 994.85 543.294 999.8 545.694 1004.1C548.094 1008.3 551.294 1011.55 555.294 1013.85C559.294 1016.15 563.844 1017.3 568.944 1017.3ZM596.094 1029V1007.55L596.994 989.1L595.494 970.65V917.7H609.894V1029H596.094ZM672.54 1029.9C664.04 1029.9 656.54 1028.15 650.04 1024.65C643.64 1021.15 638.64 1016.35 635.04 1010.25C631.54 1004.15 629.79 997.15 629.79 989.25C629.79 981.35 631.49 974.35 634.89 968.25C638.39 962.15 643.14 957.4 649.14 954C655.24 950.5 662.09 948.75 669.69 948.75C677.39 948.75 684.19 950.45 690.09 953.85C695.99 957.25 700.59 962.05 703.89 968.25C707.29 974.35 708.99 981.5 708.99 989.7C708.99 990.3 708.94 991 708.84 991.8C708.84 992.6 708.79 993.35 708.69 994.05H641.04V983.7H701.19L695.34 987.3C695.44 982.2 694.39 977.65 692.19 973.65C689.99 969.65 686.94 966.55 683.04 964.35C679.24 962.05 674.79 960.9 669.69 960.9C664.69 960.9 660.24 962.05 656.34 964.35C652.44 966.55 649.39 969.7 647.19 973.8C644.99 977.8 643.89 982.4 643.89 987.6V990C643.89 995.3 645.09 1000.05 647.49 1004.25C649.99 1008.35 653.44 1011.55 657.84 1013.85C662.24 1016.15 667.29 1017.3 672.99 1017.3C677.69 1017.3 681.94 1016.5 685.74 1014.9C689.64 1013.3 693.04 1010.9 695.94 1007.7L703.89 1017C700.29 1021.2 695.79 1024.4 690.39 1026.6C685.09 1028.8 679.14 1029.9 672.54 1029.9Z" fill="white"/>
<path d="M822.2 1050C811.267 1050 800.8 1048.47 790.8 1045.4C780.8 1042.2 772.867 1038.13 767 1033.2L776 1013C781.6 1017.4 788.533 1021.07 796.8 1024C805.067 1026.93 813.533 1028.4 822.2 1028.4C829.533 1028.4 835.467 1027.6 840 1026C844.533 1024.4 847.867 1022.27 850 1019.6C852.133 1016.8 853.2 1013.67 853.2 1010.2C853.2 1005.93 851.667 1002.53 848.6 1000C845.533 997.333 841.533 995.267 836.6 993.8C831.8 992.2 826.4 990.733 820.4 989.4C814.533 988.067 808.6 986.533 802.6 984.8C796.733 982.933 791.333 980.6 786.4 977.8C781.6 974.867 777.667 971 774.6 966.2C771.533 961.4 770 955.267 770 947.8C770 940.2 772 933.267 776 927C780.133 920.6 786.333 915.533 794.6 911.8C803 907.933 813.6 906 826.4 906C834.8 906 843.133 907.067 851.4 909.2C859.667 911.333 866.867 914.4 873 918.4L864.8 938.6C858.533 934.867 852.067 932.133 845.4 930.4C838.733 928.533 832.333 927.6 826.2 927.6C819 927.6 813.133 928.467 808.6 930.2C804.2 931.933 800.933 934.2 798.8 937C796.8 939.8 795.8 943 795.8 946.6C795.8 950.867 797.267 954.333 800.2 957C803.267 959.533 807.2 961.533 812 963C816.933 964.467 822.4 965.933 828.4 967.4C834.4 968.733 840.333 970.267 846.2 972C852.2 973.733 857.6 976 862.4 978.8C867.333 981.6 871.267 985.4 874.2 990.2C877.267 995 878.8 1001.07 878.8 1008.4C878.8 1015.87 876.733 1022.8 872.6 1029.2C868.6 1035.47 862.4 1040.53 854 1044.4C845.6 1048.13 835 1050 822.2 1050ZM952.381 1049.4C940.515 1049.4 930.115 1047.07 921.181 1042.4C912.381 1037.6 905.515 1031.07 900.581 1022.8C895.781 1014.53 893.381 1005.13 893.381 994.6C893.381 983.933 895.715 974.533 900.381 966.4C905.181 958.133 911.715 951.667 919.981 947C928.381 942.333 937.915 940 948.581 940C958.981 940 968.248 942.267 976.381 946.8C984.515 951.333 990.915 957.733 995.581 966C1000.25 974.267 1002.58 984 1002.58 995.2C1002.58 996.267 1002.51 997.467 1002.38 998.8C1002.38 1000.13 1002.31 1001.4 1002.18 1002.6H913.181V986H988.981L979.181 991.2C979.315 985.067 978.048 979.667 975.381 975C972.715 970.333 969.048 966.667 964.381 964C959.848 961.333 954.581 960 948.581 960C942.448 960 937.048 961.333 932.381 964C927.848 966.667 924.248 970.4 921.581 975.2C919.048 979.867 917.781 985.4 917.781 991.8V995.8C917.781 1002.2 919.248 1007.87 922.181 1012.8C925.115 1017.73 929.248 1021.53 934.581 1024.2C939.915 1026.87 946.048 1028.2 952.981 1028.2C958.981 1028.2 964.381 1027.27 969.181 1025.4C973.981 1023.53 978.248 1020.6 981.981 1016.6L995.381 1032C990.581 1037.6 984.515 1041.93 977.181 1045C969.981 1047.93 961.715 1049.4 952.381 1049.4ZM1087.2 940C1095.73 940 1103.33 941.667 1110 945C1116.8 948.333 1122.13 953.467 1126 960.4C1129.86 967.2 1131.8 976 1131.8 986.8V1048H1106.8V990C1106.8 980.533 1104.53 973.467 1100 968.8C1095.6 964.133 1089.4 961.8 1081.4 961.8C1075.53 961.8 1070.33 963 1065.8 965.4C1061.26 967.8 1057.73 971.4 1055.2 976.2C1052.8 980.867 1051.6 986.8 1051.6 994V1048H1026.6V941.2H1050.4V970L1046.2 961.2C1049.93 954.4 1055.33 949.2 1062.4 945.6C1069.6 941.867 1077.86 940 1087.2 940ZM1196.51 1049.4C1187.58 1049.4 1178.98 1048.27 1170.71 1046C1162.58 1043.6 1156.11 1040.73 1151.31 1037.4L1160.91 1018.4C1165.71 1021.47 1171.44 1024 1178.11 1026C1184.78 1028 1191.44 1029 1198.11 1029C1205.98 1029 1211.64 1027.93 1215.11 1025.8C1218.71 1023.67 1220.51 1020.8 1220.51 1017.2C1220.51 1014.27 1219.31 1012.07 1216.91 1010.6C1214.51 1009 1211.38 1007.8 1207.51 1007C1203.64 1006.2 1199.31 1005.47 1194.51 1004.8C1189.84 1004.13 1185.11 1003.27 1180.31 1002.2C1175.64 1001 1171.38 999.333 1167.51 997.2C1163.64 994.933 1160.51 991.933 1158.11 988.2C1155.71 984.467 1154.51 979.533 1154.51 973.4C1154.51 966.6 1156.44 960.733 1160.31 955.8C1164.18 950.733 1169.58 946.867 1176.51 944.2C1183.58 941.4 1191.91 940 1201.51 940C1208.71 940 1215.98 940.8 1223.31 942.4C1230.64 944 1236.71 946.267 1241.51 949.2L1231.91 968.2C1226.84 965.133 1221.71 963.067 1216.51 962C1211.44 960.8 1206.38 960.2 1201.31 960.2C1193.71 960.2 1188.04 961.333 1184.31 963.6C1180.71 965.867 1178.91 968.733 1178.91 972.2C1178.91 975.4 1180.11 977.8 1182.51 979.4C1184.91 981 1188.04 982.267 1191.91 983.2C1195.78 984.133 1200.04 984.933 1204.71 985.6C1209.51 986.133 1214.24 987 1218.91 988.2C1223.58 989.4 1227.84 991.067 1231.71 993.2C1235.71 995.2 1238.91 998.067 1241.31 1001.8C1243.71 1005.53 1244.91 1010.4 1244.91 1016.4C1244.91 1023.07 1242.91 1028.87 1238.91 1033.8C1235.04 1038.73 1229.51 1042.6 1222.31 1045.4C1215.11 1048.07 1206.51 1049.4 1196.51 1049.4ZM1314.44 1049.4C1303.51 1049.4 1293.77 1047.07 1285.24 1042.4C1276.71 1037.6 1269.97 1031.07 1265.04 1022.8C1260.11 1014.53 1257.64 1005.13 1257.64 994.6C1257.64 983.933 1260.11 974.533 1265.04 966.4C1269.97 958.133 1276.71 951.667 1285.24 947C1293.77 942.333 1303.51 940 1314.44 940C1325.51 940 1335.31 942.333 1343.84 947C1352.51 951.667 1359.24 958.067 1364.04 966.2C1368.97 974.333 1371.44 983.8 1371.44 994.6C1371.44 1005.13 1368.97 1014.53 1364.04 1022.8C1359.24 1031.07 1352.51 1037.6 1343.84 1042.4C1335.31 1047.07 1325.51 1049.4 1314.44 1049.4ZM1314.44 1028C1320.57 1028 1326.04 1026.67 1330.84 1024C1335.64 1021.33 1339.37 1017.47 1342.04 1012.4C1344.84 1007.33 1346.24 1001.4 1346.24 994.6C1346.24 987.667 1344.84 981.733 1342.04 976.8C1339.37 971.733 1335.64 967.867 1330.84 965.2C1326.04 962.533 1320.64 961.2 1314.64 961.2C1308.51 961.2 1303.04 962.533 1298.24 965.2C1293.57 967.867 1289.84 971.733 1287.04 976.8C1284.24 981.733 1282.84 987.667 1282.84 994.6C1282.84 1001.4 1284.24 1007.33 1287.04 1012.4C1289.84 1017.47 1293.57 1021.33 1298.24 1024C1303.04 1026.67 1308.44 1028 1314.44 1028ZM1395.35 1048V941.2H1419.15V970.6L1416.35 962C1419.55 954.8 1424.55 949.333 1431.35 945.6C1438.28 941.867 1446.88 940 1457.15 940V963.8C1456.08 963.533 1455.08 963.4 1454.15 963.4C1453.21 963.267 1452.28 963.2 1451.35 963.2C1441.88 963.2 1434.35 966 1428.75 971.6C1423.15 977.067 1420.35 985.267 1420.35 996.2V1048H1395.35Z" fill="#A40101"/>
</svg>
