<svg width="3483" height="731" viewBox="0 0 3483 731" fill="none" xmlns="http://www.w3.org/2000/svg">
<path d="M209 548C182.333 548 157.667 543.667 135 535C112.667 526 93.1667 513.5 76.5 497.5C60.1667 481.167 47.3333 462.167 38 440.5C28.6667 418.833 24 395 24 369C24 343 28.6667 319.167 38 297.5C47.3333 275.833 60.3333 257 77 241C93.6667 224.667 113.167 212.167 135.5 203.5C158.167 194.5 182.833 190 209.5 190C236.5 190 261.333 194.667 284 204C307 213 326.5 226.5 342.5 244.5L310 276C296.667 262 281.667 251.667 265 245C248.333 238 230.5 234.5 211.5 234.5C191.833 234.5 173.5 237.833 156.5 244.5C139.833 251.167 125.333 260.5 113 272.5C100.667 284.5 91 298.833 84 315.5C77.3333 331.833 74 349.667 74 369C74 388.333 77.3333 406.333 84 423C91 439.333 100.667 453.5 113 465.5C125.333 477.5 139.833 486.833 156.5 493.5C173.5 500.167 191.833 503.5 211.5 503.5C230.5 503.5 248.333 500.167 265 493.5C281.667 486.5 296.667 475.833 310 461.5L342.5 493C326.5 511 307 524.667 284 534C261.333 543.333 236.333 548 209 548ZM509.098 547C482.431 547 458.764 541.167 438.098 529.5C417.431 517.833 401.098 501.833 389.098 481.5C377.098 460.833 371.098 437.5 371.098 411.5C371.098 385.167 377.098 361.833 389.098 341.5C401.098 321.167 417.431 305.333 438.098 294C458.764 282.333 482.431 276.5 509.098 276.5C535.431 276.5 558.931 282.333 579.598 294C600.598 305.333 616.931 321.167 628.598 341.5C640.598 361.5 646.598 384.833 646.598 411.5C646.598 437.833 640.598 461.167 628.598 481.5C616.931 501.833 600.598 517.833 579.598 529.5C558.931 541.167 535.431 547 509.098 547ZM509.098 505C526.098 505 541.264 501.167 554.598 493.5C568.264 485.833 578.931 475 586.598 461C594.264 446.667 598.098 430.167 598.098 411.5C598.098 392.5 594.264 376.167 586.598 362.5C578.931 348.5 568.264 337.667 554.598 330C541.264 322.333 526.098 318.5 509.098 318.5C492.098 318.5 476.931 322.333 463.598 330C450.264 337.667 439.598 348.5 431.598 362.5C423.598 376.167 419.598 392.5 419.598 411.5C419.598 430.167 423.598 446.667 431.598 461C439.598 475 450.264 485.833 463.598 493.5C476.931 501.167 492.098 505 509.098 505ZM822.48 547C796.814 547 773.814 541.333 753.48 530C733.48 518.667 717.647 502.833 705.98 482.5C694.314 462.167 688.48 438.5 688.48 411.5C688.48 384.5 694.314 361 705.98 341C717.647 320.667 733.48 304.833 753.48 293.5C773.814 282.167 796.814 276.5 822.48 276.5C844.814 276.5 864.98 281.5 882.98 291.5C900.98 301.5 915.314 316.5 925.98 336.5C936.98 356.5 942.48 381.5 942.48 411.5C942.48 441.5 937.147 466.5 926.48 486.5C916.147 506.5 901.98 521.667 883.98 532C865.98 542 845.48 547 822.48 547ZM826.48 505C843.147 505 858.147 501.167 871.48 493.5C885.147 485.833 895.814 475 903.48 461C911.48 446.667 915.48 430.167 915.48 411.5C915.48 392.5 911.48 376.167 903.48 362.5C895.814 348.5 885.147 337.667 871.48 330C858.147 322.333 843.147 318.5 826.48 318.5C809.48 318.5 794.314 322.333 780.98 330C767.647 337.667 756.98 348.5 748.98 362.5C740.98 376.167 736.98 392.5 736.98 411.5C736.98 430.167 740.98 446.667 748.98 461C756.98 475 767.647 485.833 780.98 493.5C794.314 501.167 809.48 505 826.48 505ZM916.98 544V472.5L919.98 411L914.98 349.5V173H962.98V544H916.98ZM1171.8 547C1143.47 547 1118.47 541.167 1096.8 529.5C1075.47 517.833 1058.8 501.833 1046.8 481.5C1035.13 461.167 1029.3 437.833 1029.3 411.5C1029.3 385.167 1034.97 361.833 1046.3 341.5C1057.97 321.167 1073.8 305.333 1093.8 294C1114.13 282.333 1136.97 276.5 1162.3 276.5C1187.97 276.5 1210.63 282.167 1230.3 293.5C1249.97 304.833 1265.3 320.833 1276.3 341.5C1287.63 361.833 1293.3 385.667 1293.3 413C1293.3 415 1293.13 417.333 1292.8 420C1292.8 422.667 1292.63 425.167 1292.3 427.5H1066.8V393H1267.3L1247.8 405C1248.13 388 1244.63 372.833 1237.3 359.5C1229.97 346.167 1219.8 335.833 1206.8 328.5C1194.13 320.833 1179.3 317 1162.3 317C1145.63 317 1130.8 320.833 1117.8 328.5C1104.8 335.833 1094.63 346.333 1087.3 360C1079.97 373.333 1076.3 388.667 1076.3 406V414C1076.3 431.667 1080.3 447.5 1088.3 461.5C1096.63 475.167 1108.13 485.833 1122.8 493.5C1137.47 501.167 1154.3 505 1173.3 505C1188.97 505 1203.13 502.333 1215.8 497C1228.8 491.667 1240.13 483.667 1249.8 473L1276.3 504C1264.3 518 1249.3 528.667 1231.3 536C1213.63 543.333 1193.8 547 1171.8 547Z" fill="black"/>
<path d="M1560.6 587C1527.8 587 1496.4 582.4 1466.4 573.2C1436.4 563.6 1412.6 551.4 1395 536.6L1422 476C1438.8 489.2 1459.6 500.2 1484.4 509C1509.2 517.8 1534.6 522.2 1560.6 522.2C1582.6 522.2 1600.4 519.8 1614 515C1627.6 510.2 1637.6 503.8 1644 495.8C1650.4 487.4 1653.6 478 1653.6 467.6C1653.6 454.8 1649 444.6 1639.8 437C1630.6 429 1618.6 422.8 1603.8 418.4C1589.4 413.6 1573.2 409.2 1555.2 405.2C1537.6 401.2 1519.8 396.6 1501.8 391.4C1484.2 385.8 1468 378.8 1453.2 370.4C1438.8 361.6 1427 350 1417.8 335.6C1408.6 321.2 1404 302.8 1404 280.4C1404 257.6 1410 236.8 1422 218C1434.4 198.8 1453 183.6 1477.8 172.4C1503 160.8 1534.8 155 1573.2 155C1598.4 155 1623.4 158.2 1648.2 164.6C1673 171 1694.6 180.2 1713 192.2L1688.4 252.8C1669.6 241.6 1650.2 233.4 1630.2 228.2C1610.2 222.6 1591 219.8 1572.6 219.8C1551 219.8 1533.4 222.4 1519.8 227.6C1506.6 232.8 1496.8 239.6 1490.4 248C1484.4 256.4 1481.4 266 1481.4 276.8C1481.4 289.6 1485.8 300 1494.6 308C1503.8 315.6 1515.6 321.6 1530 326C1544.8 330.4 1561.2 334.8 1579.2 339.2C1597.2 343.2 1615 347.8 1632.6 353C1650.6 358.2 1666.8 365 1681.2 373.4C1696 381.8 1707.8 393.2 1716.6 407.6C1725.8 422 1730.4 440.2 1730.4 462.2C1730.4 484.6 1724.2 505.4 1711.8 524.6C1699.8 543.4 1681.2 558.6 1656 570.2C1630.8 581.4 1599 587 1560.6 587ZM1951.14 585.2C1915.54 585.2 1884.34 578.2 1857.54 564.2C1831.14 549.8 1810.54 530.2 1795.74 505.4C1781.34 480.6 1774.14 452.4 1774.14 420.8C1774.14 388.8 1781.14 360.6 1795.14 336.2C1809.54 311.4 1829.14 292 1853.94 278C1879.14 264 1907.74 257 1939.74 257C1970.94 257 1998.74 263.8 2023.14 277.4C2047.54 291 2066.74 310.2 2080.74 335C2094.74 359.8 2101.74 389 2101.74 422.6C2101.74 425.8 2101.54 429.4 2101.14 433.4C2101.14 437.4 2100.94 441.2 2100.54 444.8H1833.54V395H2060.94L2031.54 410.6C2031.94 392.2 2028.14 376 2020.14 362C2012.14 348 2001.14 337 1987.14 329C1973.54 321 1957.74 317 1939.74 317C1921.34 317 1905.14 321 1891.14 329C1877.54 337 1866.74 348.2 1858.74 362.6C1851.14 376.6 1847.34 393.2 1847.34 412.4V424.4C1847.34 443.6 1851.74 460.6 1860.54 475.4C1869.34 490.2 1881.74 501.6 1897.74 509.6C1913.74 517.6 1932.14 521.6 1952.94 521.6C1970.94 521.6 1987.14 518.8 2001.54 513.2C2015.94 507.6 2028.74 498.8 2039.94 486.8L2080.14 533C2065.74 549.8 2047.54 562.8 2025.54 572C2003.94 580.8 1979.14 585.2 1951.14 585.2ZM2355.59 257C2381.19 257 2403.99 262 2423.99 272C2444.39 282 2460.39 297.4 2471.99 318.2C2483.59 338.6 2489.39 365 2489.39 397.4V581H2414.39V407C2414.39 378.6 2407.59 357.4 2393.99 343.4C2380.79 329.4 2362.19 322.4 2338.19 322.4C2320.59 322.4 2304.99 326 2291.39 333.2C2277.79 340.4 2267.19 351.2 2259.59 365.6C2252.39 379.6 2248.79 397.4 2248.79 419V581H2173.79V260.6H2245.19V347L2232.59 320.6C2243.79 300.2 2259.99 284.6 2281.19 273.8C2302.79 262.6 2327.59 257 2355.59 257ZM2683.53 585.2C2656.73 585.2 2630.93 581.8 2606.13 575C2581.73 567.8 2562.33 559.2 2547.93 549.2L2576.73 492.2C2591.13 501.4 2608.33 509 2628.33 515C2648.33 521 2668.33 524 2688.33 524C2711.93 524 2728.93 520.8 2739.33 514.4C2750.13 508 2755.53 499.4 2755.53 488.6C2755.53 479.8 2751.93 473.2 2744.73 468.8C2737.53 464 2728.13 460.4 2716.53 458C2704.93 455.6 2691.93 453.4 2677.53 451.4C2663.53 449.4 2649.33 446.8 2634.93 443.6C2620.93 440 2608.13 435 2596.53 428.6C2584.93 421.8 2575.53 412.8 2568.33 401.6C2561.13 390.4 2557.53 375.6 2557.53 357.2C2557.53 336.8 2563.33 319.2 2574.93 304.4C2586.53 289.2 2602.73 277.6 2623.53 269.6C2644.73 261.2 2669.73 257 2698.53 257C2720.13 257 2741.93 259.4 2763.93 264.2C2785.93 269 2804.13 275.8 2818.53 284.6L2789.73 341.6C2774.53 332.4 2759.13 326.2 2743.53 323C2728.33 319.4 2713.13 317.6 2697.93 317.6C2675.13 317.6 2658.13 321 2646.93 327.8C2636.13 334.6 2630.73 343.2 2630.73 353.6C2630.73 363.2 2634.33 370.4 2641.53 375.2C2648.73 380 2658.13 383.8 2669.73 386.6C2681.33 389.4 2694.13 391.8 2708.13 393.8C2722.53 395.4 2736.73 398 2750.73 401.6C2764.73 405.2 2777.53 410.2 2789.13 416.6C2801.13 422.6 2810.73 431.2 2817.93 442.4C2825.13 453.6 2828.73 468.2 2828.73 486.2C2828.73 506.2 2822.73 523.6 2810.73 538.4C2799.13 553.2 2782.53 564.8 2760.93 573.2C2739.33 581.2 2713.53 585.2 2683.53 585.2ZM3037.32 585.2C3004.52 585.2 2975.32 578.2 2949.72 564.2C2924.12 549.8 2903.92 530.2 2889.12 505.4C2874.32 480.6 2866.92 452.4 2866.92 420.8C2866.92 388.8 2874.32 360.6 2889.12 336.2C2903.92 311.4 2924.12 292 2949.72 278C2975.32 264 3004.52 257 3037.32 257C3070.52 257 3099.92 264 3125.52 278C3151.52 292 3171.72 311.2 3186.12 335.6C3200.92 360 3208.32 388.4 3208.32 420.8C3208.32 452.4 3200.92 480.6 3186.12 505.4C3171.72 530.2 3151.52 549.8 3125.52 564.2C3099.92 578.2 3070.52 585.2 3037.32 585.2ZM3037.32 521C3055.72 521 3072.12 517 3086.52 509C3100.92 501 3112.12 489.4 3120.12 474.2C3128.52 459 3132.72 441.2 3132.72 420.8C3132.72 400 3128.52 382.2 3120.12 367.4C3112.12 352.2 3100.92 340.6 3086.52 332.6C3072.12 324.6 3055.92 320.6 3037.92 320.6C3019.52 320.6 3003.12 324.6 2988.72 332.6C2974.72 340.6 2963.52 352.2 2955.12 367.4C2946.72 382.2 2942.52 400 2942.52 420.8C2942.52 441.2 2946.72 459 2955.12 474.2C2963.52 489.4 2974.72 501 2988.72 509C3003.12 517 3019.32 521 3037.32 521ZM3280.04 581V260.6H3351.44V348.8L3343.04 323C3352.64 301.4 3367.64 285 3388.04 273.8C3408.84 262.6 3434.64 257 3465.44 257V328.4C3462.24 327.6 3459.24 327.2 3456.44 327.2C3453.64 326.8 3450.84 326.6 3448.04 326.6C3419.64 326.6 3397.04 335 3380.24 351.8C3363.44 368.2 3355.04 392.8 3355.04 425.6V581H3280.04Z" fill="#A40101"/>
</svg>
