<svg width="1693" height="746" viewBox="0 0 1693 746" fill="none" xmlns="http://www.w3.org/2000/svg">
<path d="M881.065 578.625C846.2 578.625 812.92 573.861 781.225 564.334C750.058 554.806 725.495 543.162 707.534 529.4L711.135 522.545C726.115 494.026 762.968 484.779 793.256 495.751C797.322 497.224 801.5 498.648 805.789 500.023C832.201 508.492 859.142 512.727 886.611 512.727C922.004 512.727 947.36 507.698 962.679 497.641C978.527 487.585 986.451 473.558 986.451 455.562C986.451 442.329 981.696 432.007 972.188 424.597C962.679 417.187 950.001 411.629 934.154 407.924C918.835 404.219 901.666 401.043 882.649 398.396C863.632 395.221 844.615 391.516 825.598 387.281C806.581 382.517 789.149 376.166 773.301 368.226C757.454 359.757 744.776 348.377 735.267 334.086C725.759 319.265 721.005 299.681 721.005 275.333C721.005 249.926 728.136 227.695 742.399 208.64C756.662 189.585 776.735 175.03 802.619 164.973C829.032 154.387 860.199 149.094 896.12 149.094C923.589 149.094 951.322 152.534 979.319 159.415C1007.84 165.767 1031.09 175.03 1049.05 187.204L1036.9 209.776C1025.99 230.029 1000.09 235.951 978.566 227.839C971.519 225.184 964.375 223.018 957.133 221.344C936.531 216.58 915.929 214.198 895.327 214.198C862.048 214.198 837.22 219.756 820.844 230.871C804.468 241.457 796.28 255.219 796.28 272.157C796.28 286.448 801.035 297.564 810.543 305.503C820.58 312.914 833.258 318.736 848.577 322.97C864.425 327.205 881.857 330.91 900.874 334.086C919.891 336.732 938.908 340.438 957.925 345.201C976.942 349.436 994.11 355.523 1009.43 363.462C1025.28 371.402 1037.96 382.517 1047.46 396.809C1057.5 411.1 1062.52 430.155 1062.52 453.974C1062.52 479.38 1055.12 501.346 1040.33 519.872C1025.54 538.398 1004.68 552.954 977.735 563.54C950.794 573.597 918.57 578.625 881.065 578.625Z" fill="#FB1616"/>
<path d="M899.626 745.869C844.068 745.869 792.677 736.841 745.452 718.785C698.922 700.034 658.295 673.991 623.571 640.656C589.542 606.626 562.804 567.041 543.359 521.9C523.914 476.759 514.191 427.104 514.191 372.935C514.191 318.765 523.914 269.11 543.359 223.969C562.804 178.828 589.889 139.59 624.613 106.255C659.337 72.2257 699.964 46.1827 746.494 28.1263C793.718 9.37543 845.11 0 900.668 0C956.921 0 1008.66 9.72269 1055.88 29.1681C1103.8 47.9189 1144.43 76.0453 1177.76 113.547L1137.58 152.496C1122.42 167.192 1098.35 166.441 1081.91 153.188C1061.62 136.837 1039.75 123.97 1016.3 114.589C981.575 100.005 944.42 92.7128 904.835 92.7128C863.861 92.7128 825.664 99.6576 790.246 113.547C755.522 127.437 725.312 146.882 699.617 171.883C673.921 196.884 653.781 226.747 639.197 261.471C625.307 295.5 618.363 332.655 618.363 372.935C618.363 413.214 625.307 450.716 639.197 485.44C653.781 519.469 673.921 548.985 699.617 573.986C725.312 598.987 755.522 618.433 790.246 632.322C825.664 646.212 863.861 653.156 904.835 653.156C944.42 653.156 981.575 646.212 1016.3 632.322C1022.94 629.531 1029.46 626.46 1035.85 623.109C1081.7 599.073 1140.6 595.255 1177.76 631.28V631.28C1144.43 668.782 1103.8 697.256 1055.88 716.701C1008.66 736.147 956.573 745.869 899.626 745.869Z" fill="white"/>
<path d="M1263.4 241.39L1430.24 410.008L1263.4 578.626" stroke="white" stroke-width="77" stroke-linecap="square"/>
<path d="M1517.16 290.015L1638 410.855L1517.16 531.695" stroke="white" stroke-width="77" stroke-linecap="square"/>
<path d="M175.84 290.015L55.0001 410.855L175.84 531.695" stroke="white" stroke-width="77" stroke-linecap="square"/>
<path d="M429.603 241.39L262.76 410.008L429.603 578.626" stroke="white" stroke-width="77" stroke-linecap="square"/>
</svg>
