<svg width="1677" height="739" viewBox="0 0 1677 739" fill="none" xmlns="http://www.w3.org/2000/svg">
<path d="M1251.37 238.988L1416.56 405.928L1251.37 572.867" stroke="black" stroke-width="77" stroke-linecap="square"/>
<path d="M1502.61 287.13L1622.25 406.767L1502.61 526.404" stroke="black" stroke-width="77" stroke-linecap="square"/>
<path d="M174.637 287.13L55 406.767L174.637 526.404" stroke="black" stroke-width="77" stroke-linecap="square"/>
<path d="M425.875 238.988L260.693 405.928L425.875 572.867" stroke="black" stroke-width="77" stroke-linecap="square"/>
<path d="M872.845 572.868C838.328 572.868 805.379 568.151 773.999 558.719C743.143 549.286 718.823 537.757 701.042 524.132L704.327 517.878C719.307 489.358 756.169 480.106 786.477 491.023C790.324 492.408 794.271 493.75 798.319 495.048C824.468 503.432 851.141 507.625 878.337 507.625C913.377 507.625 938.481 502.646 953.648 492.69C969.338 482.733 977.183 468.846 977.183 451.029C977.183 437.928 972.476 427.709 963.062 420.372C953.648 413.036 941.096 407.533 925.406 403.865C910.239 400.197 893.242 397.053 874.414 394.432C855.586 391.288 836.759 387.62 817.931 383.428C799.103 378.711 781.844 372.423 766.154 364.562C750.465 356.178 737.913 344.911 728.499 330.762C719.085 316.089 714.378 296.699 714.378 272.593C714.378 247.44 721.438 225.43 735.559 206.564C749.68 187.699 769.554 173.288 795.181 163.331C821.33 152.85 852.187 147.61 887.751 147.61C914.946 147.61 942.404 151.016 970.122 157.829C998.364 164.117 1021.38 173.288 1039.16 185.341L1027.33 207.313C1016.42 227.566 990.52 233.481 968.977 225.422C962.13 222.861 955.19 220.768 948.157 219.141C927.76 214.425 907.363 212.067 886.966 212.067C854.018 212.067 829.437 217.569 813.224 228.574C797.011 239.055 788.905 252.68 788.905 269.449C788.905 283.598 793.612 294.603 803.026 302.464C812.962 309.8 825.514 315.565 840.681 319.757C856.371 323.949 873.63 327.617 892.458 330.762C911.285 333.382 930.113 337.05 948.941 341.767C967.769 345.959 984.766 351.985 999.933 359.846C1015.62 367.706 1028.17 378.711 1037.59 392.86C1047.53 407.009 1052.49 425.875 1052.49 449.457C1052.49 474.61 1045.17 496.358 1030.53 514.699C1015.88 533.041 995.226 547.452 968.553 557.933C941.881 567.889 909.978 572.868 872.845 572.868Z" fill="#A40101"/>
<path d="M891.222 738.448C836.216 738.448 785.336 729.509 738.582 711.633C692.515 693.068 652.292 667.284 617.914 634.281C584.223 600.59 557.751 561.399 538.499 516.707C519.248 472.015 509.622 422.854 509.622 369.224C509.622 315.594 519.248 266.432 538.499 221.741C557.751 177.049 584.566 138.201 618.945 105.198C653.323 71.507 693.546 45.7232 739.613 27.8464C786.368 9.28215 837.248 0 892.253 0C947.946 0 999.17 9.62595 1045.92 28.8778C1093.37 47.4421 1133.59 75.2886 1166.59 112.417L1127.08 150.713C1111.92 165.41 1087.85 164.654 1071.39 151.425C1051.39 135.35 1029.84 122.691 1006.73 113.449C972.355 99.0097 935.57 91.7903 896.378 91.7903C855.812 91.7903 817.996 98.666 782.93 112.417C748.551 126.169 718.642 145.421 693.202 170.173C667.762 194.925 647.823 224.491 633.384 258.869C619.632 292.56 612.757 329.345 612.757 369.224C612.757 409.103 619.632 446.231 633.384 480.61C647.823 514.301 667.762 543.522 693.202 568.275C718.642 593.027 748.551 612.279 782.93 626.03C817.996 639.782 855.812 646.657 896.378 646.657C935.57 646.657 972.355 639.782 1006.73 626.03C1013.31 623.267 1019.77 620.226 1026.09 616.909C1071.48 593.112 1129.79 589.332 1166.59 624.999C1133.59 662.128 1093.37 690.318 1045.92 709.57C999.17 728.822 947.602 738.448 891.222 738.448Z" fill="black"/>
</svg>
